<?xml version="1.0" encoding="UTF-8" standalone="no" ?>
<!DOCTYPE svg PUBLIC "-//W3C//DTD SVG 1.1//EN" "http://www.w3.org/Graphics/SVG/1.1/DTD/svg11.dtd">
<svg xmlns="http://www.w3.org/2000/svg" xmlns:xlink="http://www.w3.org/1999/xlink" version="1.1" width="500" height="500" viewBox="0 0 500 500" xml:space="preserve">
<desc>Created with Fabric.js 4.6.0</desc>
<defs>
</defs>
<g transform="matrix(1.42 0 0 1.42 181.93 253.87)" id="ALkWaCzkeTdRZKqHWwPyz"  >
<path style="stroke: rgb(0,0,0); stroke-width: 0; stroke-dasharray: none; stroke-linecap: butt; stroke-dashoffset: 0; stroke-linejoin: miter; stroke-miterlimit: 4; fill: rgb(100,100,100); fill-rule: nonzero; opacity: 1;" vector-effect="non-scaling-stroke"  transform=" translate(-34.15, -142.33)" d="M 0 0 L 68.29925 0 L 68.29925 39.57593 L 0 39.57593 z M 68.29925 284.66177 L 0 284.66177 L 0 244.52585 L 68.29925 244.52585 z M 0 59.60585 L 68.29925 59.60585 L 68.29925 224.49593000000002 L 0 224.49593000000002 z" stroke-linecap="round" />
</g>
<g transform="matrix(1.42 0 0 1.42 53.67 291.37)" id="O7-FLWRZDNXvBT7qR0Gs6"  >
<path style="stroke: rgb(0,0,0); stroke-width: 0; stroke-dasharray: none; stroke-linecap: butt; stroke-dashoffset: 0; stroke-linejoin: miter; stroke-miterlimit: 4; fill: rgb(100,100,100); fill-rule: nonzero; opacity: 1;" vector-effect="non-scaling-stroke"  transform=" translate(-34.15, -115.85)" d="M 0 0 L 68.29925 0 L 68.29925 35.39576 L 0 35.39576 z M 68.29925 231.70144 L 0 231.70144 L 0 191.67568 L 68.29925 191.67568 z M 0 55.42568 L 68.29925 55.42568 L 68.29925 171.64576 L 0 171.64576 z" stroke-linecap="round" />
</g>
<g transform="matrix(1.16 -0.59 0.59 1.16 342.86 276.85)" id="mhQ7B0GFUA-FZ8gqBa1UU"  >
<path style="stroke: rgb(0,0,0); stroke-width: 0; stroke-dasharray: none; stroke-linecap: butt; stroke-dashoffset: 0; stroke-linejoin: miter; stroke-miterlimit: 4; fill: rgb(100,100,100); fill-rule: nonzero; opacity: 1;" vector-effect="non-scaling-stroke"  transform=" translate(0, 0)" d="M -34.14962 -136.81418 L 34.14963 -136.81418 L 34.14963 -102.35495999999999 L -34.14962 -102.35495999999999 z M 34.14963 136.81419 L -34.14962 136.81419 L -34.14962 96.81496 L 34.14963 96.81496 z M -34.14962 -82.32505 L 34.14963 -82.32505 L 34.14963 76.78503 L -34.14962 76.78503 z" stroke-linecap="round" />
</g>
<g transform="matrix(1.42 0 0 1.42 329.28 149.38)" id="QZGy8HmcLS4XkZyCzY7yH"  >
<path style="stroke: rgb(0,0,0); stroke-width: 1; stroke-dasharray: none; stroke-linecap: butt; stroke-dashoffset: 0; stroke-linejoin: miter; stroke-miterlimit: 4; fill: rgb(255,255,255); fill-opacity: 0; fill-rule: nonzero; opacity: 1;" vector-effect="non-scaling-stroke"  transform=" translate(0, 0)" d="M 0 0" stroke-linecap="round" />
</g>
<g transform="matrix(1.18 0 0 1.18 54.72 25.69)" id="eej6wqfC9vEDa8MUHZ8Pe"  >
<path style="stroke: rgb(0,0,0); stroke-width: 1; stroke-dasharray: none; stroke-linecap: butt; stroke-dashoffset: 0; stroke-linejoin: miter; stroke-miterlimit: 4; fill: rgb(255,255,255); fill-opacity: 0; fill-rule: nonzero; opacity: 1;" vector-effect="non-scaling-stroke"  transform=" translate(0, 0)" d="M 0 0" stroke-linecap="round" />
</g>
<g transform="matrix(1.39 -0.68 0.33 0.68 418.75 105.38)" id="ETuYHT21zf81VA3QfukcB"  >
<path style="stroke: rgb(0,0,0); stroke-width: 0; stroke-dasharray: none; stroke-linecap: butt; stroke-dashoffset: 0; stroke-linejoin: miter; stroke-miterlimit: 4; fill: rgb(100,100,100); fill-rule: nonzero; opacity: 1;" vector-effect="non-scaling-stroke"  transform=" translate(0, 0)" d="M -52.74169 0.13515 C -52.74169 0.13515 -37.54269 -27.69638 -3.5334000000000003 -18.6641 C 30.47589 -9.631810000000002 52.7417 -1.8235000000000028 52.7417 -1.8235000000000028 C 52.7417 -1.8235000000000028 26.317050000000002 10.791899999999996 -3.5334000000000003 18.934389999999997 C -33.383849999999995 27.076879999999996 -52.74169 0.13513999999999626 -52.74169 0.13513999999999626 z" stroke-linecap="round" />
</g>
<g transform="matrix(1.11 0.32 -0.17 0.59 398.84 173.39)" id="qiCWbfOVNxhb2DoTiN-xS"  >
<path style="stroke: rgb(0,0,0); stroke-width: 0; stroke-dasharray: none; stroke-linecap: butt; stroke-dashoffset: 0; stroke-linejoin: miter; stroke-miterlimit: 4; fill: rgb(100,100,100); fill-rule: nonzero; opacity: 1;" vector-effect="non-scaling-stroke"  transform=" translate(0, 0)" d="M -51.71255 -9.61092 C -51.71255 -9.61092 -38.57183 -27.11913 -4.5625399999999985 -18.086840000000002 C 29.44675 -9.054550000000003 51.71256 -1.2462400000000038 51.71256 -1.2462400000000038 C 51.71256 -1.2462400000000038 25.287910000000004 11.369159999999995 -4.5625399999999985 19.511649999999996 C -34.41298999999999 27.654139999999998 -51.71255 -9.610920000000004 -51.71255 -9.610920000000004 z" stroke-linecap="round" />
</g>
<g transform="matrix(0.61 -0.9 0.51 0.34 357.67 81.93)" id="KLXb4ONp1ROSZUw3QlasK"  >
<path style="stroke: rgb(0,0,0); stroke-width: 0; stroke-dasharray: none; stroke-linecap: butt; stroke-dashoffset: 0; stroke-linejoin: miter; stroke-miterlimit: 4; fill: rgb(100,100,100); fill-rule: nonzero; opacity: 1;" vector-effect="non-scaling-stroke"  transform=" translate(0, 0)" d="M -54.17471 21.53618 C -54.17471 21.53618 -36.10968 -30.10158 -2.100379999999994 -21.069289999999995 C 31.908910000000006 -12.036999999999995 54.17472000000001 -4.228689999999997 54.17472000000001 -4.228689999999997 C 54.17472000000001 -4.228689999999997 27.750070000000008 8.386710000000003 -2.100379999999994 16.529200000000003 C -31.950829999999993 24.671690000000005 -54.17471 21.53618 -54.17471 21.53618 z" stroke-linecap="round" />
</g>
</svg>